<svg xmlns="http://www.w3.org/2000/svg" width="191.46" height="47.935" viewBox="0 0 191.46 47.935">
  <g id="Group_69" data-name="Group 69" transform="translate(-20 -6)">
    <g id="Group_58" transform="translate(-106.714 -196.775)">
      <g id="Ellipse_2" transform="translate(149.82 214.006) rotate(39)">
        <ellipse id="Ellipse_20" data-name="Ellipse 20" cx="12.739" cy="13.156" rx="12.739" ry="13.156" transform="translate(26.329 0.002) rotate(90)" fill="none"/>
        <path id="Path_13" data-name="Path 13" d="M21.6,22.558a13.315,13.315,0,0,1-8.439,2.952A12.967,12.967,0,0,1,0,12.771,12.532,12.532,0,0,1,3.851,3.754,13.237,13.237,0,0,1,13.156,0h0a13.234,13.234,0,0,1,9.306,3.722,12.406,12.406,0,0,1,3.851,9.017,12.532,12.532,0,0,1-3.851,9.017C22.173,22.045,21.885,22.3,21.6,22.558ZM4.942,3.209a9.34,9.34,0,0,0-.866.77,12.171,12.171,0,0,0-3.754,8.76A12.645,12.645,0,0,0,13.156,25.158a13,13,0,0,0,9.081-3.626,12.063,12.063,0,0,0,3.754-8.792,12.243,12.243,0,0,0-3.754-8.792A12.947,12.947,0,0,0,13.156.321h0A13.008,13.008,0,0,0,4.942,3.209Z" transform="translate(0 0)" fill="#ebebeb"/>
      </g>
      <g id="Ellipse_5" transform="translate(149.687 207.776) rotate(39)">
        <circle id="Ellipse_21" data-name="Ellipse 21" cx="12.836" cy="12.836" r="12.836" fill="none"/>
        <path id="Path_14" data-name="Path 14" d="M20.89,22.815a12.605,12.605,0,0,1-8.054,2.856A12.836,12.836,0,0,1,12.836,0h0a12.843,12.843,0,0,1,9.081,21.917C21.6,22.238,21.243,22.526,20.89,22.815ZM5.391,3.594A11.892,11.892,0,1,0,12.836.963h0A11.815,11.815,0,0,0,5.391,3.594Z" transform="translate(0 0)" fill="#ebebeb"/>
      </g>
      <g id="Ellipse_6" transform="translate(145.815 202.775) rotate(39)">
        <circle id="Ellipse_22" data-name="Ellipse 22" cx="12.996" cy="12.996" r="12.996" fill="none"/>
        <path id="Path_15" data-name="Path 15" d="M21.147,23.1A13,13,0,0,1,13,25.992a12.811,12.811,0,0,1-9.177-3.819A12.979,12.979,0,0,1,13,0h0a12.811,12.811,0,0,1,9.177,3.819A12.953,12.953,0,0,1,21.147,23.1ZM5.84,4.139A11.431,11.431,0,0,0,1.6,13a11.392,11.392,0,0,0,22.783,0A11.394,11.394,0,0,0,13,1.6h0A11.435,11.435,0,0,0,5.84,4.139Z" transform="translate(0 0)" fill="#ebebeb"/>
      </g>
      <g id="Ellipse_7" transform="translate(143.284 214.153) rotate(39)">
        <circle id="Ellipse_23" data-name="Ellipse 23" cx="12.996" cy="12.996" r="12.996" fill="none"/>
        <path id="Path_16" data-name="Path 16" d="M21.147,23.1A13,13,0,0,1,13,25.992a12.811,12.811,0,0,1-9.177-3.819A13,13,0,0,1,0,13,12.811,12.811,0,0,1,3.819,3.819,12.811,12.811,0,0,1,13,0a12.986,12.986,0,0,1,8.151,23.1ZM5.23,3.369q-.529.433-.963.866A12.306,12.306,0,0,0,.642,13,12.38,12.38,0,0,0,13,25.35,12.354,12.354,0,1,0,5.23,3.369Z" transform="translate(0 0)" fill="#ebebeb"/>
      </g>
      <g id="Ellipse_8" transform="translate(142.87 208.036) rotate(39)">
        <circle id="Ellipse_24" data-name="Ellipse 24" cx="12.836" cy="12.836" r="12.836" fill="none"/>
        <path id="Path_17" data-name="Path 17" d="M20.89,22.815a12.642,12.642,0,0,1-8.054,2.856A12.836,12.836,0,1,1,21.917,3.754a12.66,12.66,0,0,1,3.754,9.081A12.794,12.794,0,0,1,20.89,22.815ZM5.583,3.851c-.321.257-.61.546-.931.834a11.375,11.375,0,0,0-3.369,8.151A11.572,11.572,0,1,0,12.836,1.284h0A11.438,11.438,0,0,0,5.583,3.851Z" transform="translate(0 0)" fill="#ebebeb"/>
      </g>
    </g>
    <g id="Group_63" data-name="Group 63" transform="translate(-54.5 -378)">
      <path id="Path_19" data-name="Path 19" d="M1.523-14.375H11.729v2.529H4.512v3.311H10.83v2.5H4.512V0H1.523Zm12.217-.02h3.008V-2.588h7.129V0H13.74ZM32.324-2.148a3.436,3.436,0,0,0,2.837-1.318,5.891,5.891,0,0,0,1.05-3.75,5.9,5.9,0,0,0-1.05-3.745,3.431,3.431,0,0,0-2.837-1.323,3.477,3.477,0,0,0-2.852,1.318,5.833,5.833,0,0,0-1.064,3.75,5.833,5.833,0,0,0,1.064,3.75A3.477,3.477,0,0,0,32.324-2.148Zm6.895-5.068a7.785,7.785,0,0,1-2.178,5.938A6.277,6.277,0,0,1,32.324.4a6.277,6.277,0,0,1-4.717-1.68A7.765,7.765,0,0,1,25.42-7.217q0-3.955,2.188-5.937a6.277,6.277,0,0,1,4.717-1.68,6.277,6.277,0,0,1,4.717,1.68Q39.219-11.172,39.219-7.217Zm4.258-7.178,1.9,8.242.41,2.295.42-2.246,1.621-8.291h3.174l1.709,8.242.439,2.295.439-2.207,1.924-8.33h3.057L54.521,0H51.65L49.912-8.418,49.4-11.2,48.9-8.418,47.158,0H44.365L40.283-14.395Z" transform="translate(125 414)" fill="#ebebeb"/>
      <path id="Path_18" data-name="Path 18" d="M11.84-10.22a4.12,4.12,0,0,0-1.56-2.62,5.178,5.178,0,0,0-2.98-.78,4.559,4.559,0,0,0-2.24.52,4.528,4.528,0,0,0-1.55,1.4,6.179,6.179,0,0,0-.9,2.03,9.9,9.9,0,0,0-.29,2.43,11.17,11.17,0,0,0,.25,2.36A6.274,6.274,0,0,0,3.4-2.81,4.408,4.408,0,0,0,4.96-1.34a4.9,4.9,0,0,0,2.46.56,4.538,4.538,0,0,0,1.68-.3,4.192,4.192,0,0,0,1.33-.83,4.837,4.837,0,0,0,.96-1.25,6.292,6.292,0,0,0,.59-1.58H13.4a8.982,8.982,0,0,1-.7,1.97,5.616,5.616,0,0,1-1.21,1.63A5.533,5.533,0,0,1,9.67-.03,7,7,0,0,1,7.16.38,6.118,6.118,0,0,1,4.32-.23,5.393,5.393,0,0,1,2.39-1.88,6.924,6.924,0,0,1,1.3-4.29,12.046,12.046,0,0,1,.96-7.2a10.543,10.543,0,0,1,.51-3.5,6.249,6.249,0,0,1,1.41-2.35A5.328,5.328,0,0,1,5-14.37a8.3,8.3,0,0,1,2.66-.41,6.989,6.989,0,0,1,2.05.29,5.033,5.033,0,0,1,1.68.87,4.721,4.721,0,0,1,1.2,1.43,6.013,6.013,0,0,1,.65,1.97ZM16.06,0V-14.4h9.58v1.16H17.42v5.2h7.42v1.16H17.42v5.72h8.42V0ZM28.22,0V-14.4h5.26a7.063,7.063,0,0,1,2.31.32,3.572,3.572,0,0,1,1.44.88,3.1,3.1,0,0,1,.74,1.29,5.507,5.507,0,0,1,.21,1.53,3.663,3.663,0,0,1-.49,1.98,3.616,3.616,0,0,1-1.27,1.23,5.47,5.47,0,0,1-1.77.63,11.1,11.1,0,0,1-1.99.18H29.58V0ZM32.7-7.52a11.106,11.106,0,0,0,1.72-.12,3.43,3.43,0,0,0,1.29-.45,2.228,2.228,0,0,0,.82-.9,3.293,3.293,0,0,0,.29-1.49,2.462,2.462,0,0,0-.89-2.06,4.585,4.585,0,0,0-2.83-.7H29.58v5.72Zm6.5-6.88H49.68v1.16H45.12V0H43.76V-13.24H39.2ZM52.1,0V-14.4h1.36V0Zm4.52-7.18a9.9,9.9,0,0,1,.43-2.96,7.118,7.118,0,0,1,1.27-2.41,6.039,6.039,0,0,1,2.08-1.63,6.49,6.49,0,0,1,2.86-.6,6.935,6.935,0,0,1,2.95.59,5.962,5.962,0,0,1,2.12,1.62,7.009,7.009,0,0,1,1.28,2.42,10,10,0,0,1,.43,2.97,9.731,9.731,0,0,1-.43,2.93,7.133,7.133,0,0,1-1.27,2.4,5.99,5.99,0,0,1-2.1,1.63,6.719,6.719,0,0,1-2.92.6,6.719,6.719,0,0,1-2.92-.6,5.99,5.99,0,0,1-2.1-1.63,7,7,0,0,1-1.26-2.4A9.946,9.946,0,0,1,56.62-7.18Zm6.72,6.4a5.123,5.123,0,0,0,2.41-.53,4.807,4.807,0,0,0,1.66-1.41,6,6,0,0,0,.96-2.04,9.334,9.334,0,0,0,.31-2.42,9.049,9.049,0,0,0-.37-2.69,5.835,5.835,0,0,0-1.07-2.03,4.591,4.591,0,0,0-1.7-1.28,5.5,5.5,0,0,0-2.24-.44,5,5,0,0,0-2.39.54,4.861,4.861,0,0,0-1.66,1.43,6.115,6.115,0,0,0-.96,2.05,9.334,9.334,0,0,0-.31,2.42,9.413,9.413,0,0,0,.31,2.44,6,6,0,0,0,.96,2.04,4.711,4.711,0,0,0,1.66,1.4A5.252,5.252,0,0,0,63.34-.78ZM74.1-12.56h-.04V0H72.7V-14.4h1.54L82.56-1.82h.04V-14.4h1.36V0H82.38Z" transform="translate(182 414)" fill="#ebebeb"/>
    </g>
  </g>
</svg>
